<?xml version="1.0" encoding="utf-8"?>
<!-- Generator: Adobe Illustrator 19.0.0, SVG Export Plug-In . SVG Version: 6.00 Build 0)  -->
<svg version="1.1" id="Layer_2" xmlns="http://www.w3.org/2000/svg" xmlns:xlink="http://www.w3.org/1999/xlink" x="0px" y="0px"
	 viewBox="0 0 189 45.6" style="enable-background:new 0 0 189 45.6;" xml:space="preserve">
<style type="text/css">
	.st0{fill:#BCBEC0;}
	.st1{clip-path:url(#SVGID_2_);fill:#EF4066;}
	.st2{clip-path:url(#SVGID_4_);fill:#EF4066;}
	.st3{clip-path:url(#SVGID_6_);fill:#EF4066;}
	.st4{clip-path:url(#SVGID_8_);fill:#244092;}
	.st5{clip-path:url(#SVGID_10_);fill:#244092;}
</style>
<g>
	<path class="st0" d="M69.8,15.9c0.6,0.8,0.8,1.7,0.8,2.8c0,1.1-0.3,2-0.8,2.7c-0.3,0.4-0.8,0.7-1.4,1c0.9,0.3,1.6,0.9,2.1,1.6
		c0.5,0.7,0.7,1.6,0.7,2.7c0,1.1-0.3,2-0.8,2.9c-0.3,0.6-0.8,1-1.3,1.4c-0.6,0.4-1.3,0.7-2,0.9c-0.8,0.2-1.6,0.2-2.6,0.2h-8.1V14
		h8.7C67.3,14,68.8,14.7,69.8,15.9 M59.9,17.2v4h4.4c0.8,0,1.4-0.1,1.9-0.4c0.5-0.3,0.7-0.8,0.7-1.6c0-0.8-0.3-1.4-1-1.7
		c-0.6-0.2-1.3-0.3-2.1-0.3H59.9z M59.9,24.1V29h4.4c0.8,0,1.4-0.1,1.8-0.3c0.8-0.4,1.2-1.1,1.2-2.3c0-0.9-0.4-1.6-1.2-1.9
		c-0.4-0.2-1-0.3-1.8-0.3H59.9z"/>
	<path class="st0" d="M77.5,17.1h-3.5v-3.2h3.5V17.1z M73.9,18.7h3.5v13.4h-3.5V18.7z"/>
	<path class="st0" d="M79.3,21.3v-2.5h1.9v-3.7h3.5v3.7h2.2v2.5h-2.2v7.1c0,0.5,0.1,0.9,0.2,1c0.1,0.1,0.6,0.2,1.3,0.2
		c0.1,0,0.2,0,0.3,0c0.1,0,0.2,0,0.3,0v2.6l-1.7,0.1c-1.7,0.1-2.8-0.2-3.4-0.9c-0.4-0.4-0.6-1-0.6-1.9v-8.2H79.3z"/>
	<path class="st0" d="M101.4,14h4.3l6.4,18.1H108l-1.2-3.7h-6.7l-1.2,3.7h-4L101.4,14z M101.2,25.3h4.6l-2.3-7.1L101.2,25.3z"/>
	<rect x="114" y="14" class="st0" width="3.5" height="18.1"/>
	<rect x="120.6" y="14" class="st0" width="3.5" height="18.1"/>
	<path class="st0" d="M130.7,17.1h-3.5v-3.2h3.5V17.1z M127.2,18.7h3.5v13.4h-3.5V18.7z"/>
	<path class="st0" d="M139.2,24c0.7-0.1,1.1-0.2,1.4-0.3c0.5-0.2,0.8-0.5,0.8-1c0-0.5-0.2-0.9-0.6-1.1c-0.4-0.2-1-0.3-1.7-0.3
		c-0.8,0-1.4,0.2-1.8,0.6c-0.3,0.3-0.4,0.7-0.5,1.2h-3.4c0.1-1.2,0.4-2.1,1-2.9c0.9-1.2,2.5-1.8,4.8-1.8c1.5,0,2.8,0.3,3.9,0.9
		c1.1,0.6,1.7,1.7,1.7,3.3v6.1c0,0.4,0,0.9,0,1.5c0,0.5,0.1,0.8,0.2,0.9c0.1,0.2,0.3,0.3,0.5,0.4v0.5h-3.8c-0.1-0.3-0.2-0.5-0.2-0.8
		c0-0.2-0.1-0.5-0.1-0.8c-0.5,0.5-1,1-1.7,1.3c-0.8,0.4-1.6,0.6-2.6,0.6c-1.2,0-2.2-0.3-3-1c-0.8-0.7-1.2-1.7-1.2-2.9
		c0-1.6,0.6-2.8,1.9-3.6c0.7-0.4,1.7-0.7,3.1-0.9L139.2,24z M141.4,25.6c-0.2,0.1-0.5,0.3-0.7,0.3c-0.2,0.1-0.5,0.2-0.9,0.2
		l-0.8,0.1c-0.7,0.1-1.3,0.3-1.6,0.5c-0.6,0.3-0.8,0.8-0.8,1.5c0,0.6,0.2,1,0.5,1.3c0.3,0.3,0.7,0.4,1.2,0.4c0.8,0,1.5-0.2,2.1-0.7
		c0.6-0.4,1-1.2,1-2.4V25.6z"/>
	<path class="st0" d="M158.5,19.5c0.9,0.7,1.3,1.9,1.3,3.6v9h-3.6V24c0-0.7-0.1-1.2-0.3-1.6c-0.3-0.7-1-1-1.9-1
		c-1.2,0-2,0.5-2.4,1.5c-0.2,0.5-0.3,1.2-0.3,2v7.2h-3.5V18.7h3.4v2c0.4-0.7,0.9-1.2,1.3-1.5c0.7-0.5,1.6-0.8,2.7-0.8
		C156.5,18.4,157.6,18.8,158.5,19.5"/>
	<path class="st0" d="M170.9,23.5c-0.1-0.5-0.2-0.9-0.5-1.3c-0.4-0.5-1-0.8-1.8-0.8c-1.2,0-2,0.6-2.4,1.8c-0.2,0.6-0.3,1.4-0.3,2.5
		c0,1,0.1,1.8,0.3,2.4c0.4,1.1,1.2,1.7,2.4,1.7c0.8,0,1.4-0.2,1.7-0.7c0.3-0.4,0.6-1,0.6-1.7h3.6c-0.1,1.1-0.5,2.1-1.2,3
		c-1.1,1.5-2.7,2.3-4.9,2.3c-2.2,0-3.7-0.6-4.8-1.9c-1-1.3-1.5-2.9-1.5-5c0-2.3,0.6-4.1,1.7-5.4c1.1-1.3,2.7-1.9,4.6-1.9
		c1.7,0,3.1,0.4,4.1,1.1c1.1,0.8,1.7,2.1,1.9,4H170.9z"/>
	<path class="st0" d="M185.5,19c0.9,0.4,1.7,1.1,2.3,2c0.5,0.8,0.9,1.7,1.1,2.8c0.1,0.6,0.1,1.5,0.1,2.7h-9.7
		c0.1,1.3,0.5,2.3,1.4,2.8c0.5,0.3,1.2,0.5,1.9,0.5c0.8,0,1.4-0.2,1.9-0.6c0.3-0.2,0.5-0.5,0.7-0.9h3.6c-0.1,0.8-0.5,1.6-1.3,2.4
		c-1.2,1.3-2.9,2-5,2c-1.8,0-3.4-0.5-4.7-1.6c-1.4-1.1-2-2.9-2-5.4c0-2.3,0.6-4.1,1.8-5.3c1.2-1.2,2.8-1.9,4.8-1.9
		C183.6,18.4,184.6,18.6,185.5,19 M180.3,22c-0.5,0.5-0.8,1.2-0.9,2.1h6c-0.1-0.9-0.4-1.6-0.9-2.1c-0.6-0.5-1.2-0.7-2.1-0.7
		C181.5,21.3,180.8,21.5,180.3,22"/>
	<g>
		<g>
			<defs>
				<rect id="SVGID_1_" width="23.9" height="45.6"/>
			</defs>
			<clipPath id="SVGID_2_">
				<use xlink:href="#SVGID_1_"  style="overflow:visible;"/>
			</clipPath>
			<path class="st1" d="M1.2,45.6c-0.2,0-0.4,0-0.5-0.1c-0.6-0.3-0.8-1-0.5-1.6L21.7,0.6c0.3-0.6,1-0.8,1.6-0.5
				c0.6,0.3,0.8,1,0.5,1.6L2.2,44.9C2,45.3,1.6,45.6,1.2,45.6"/>
		</g>
	</g>
	<g>
		<g>
			<defs>
				<rect id="SVGID_3_" x="21.6" width="2.3" height="45.5"/>
			</defs>
			<clipPath id="SVGID_4_">
				<use xlink:href="#SVGID_3_"  style="overflow:visible;"/>
			</clipPath>
			<path class="st2" d="M22.8,45.5c-0.6,0-1.2-0.5-1.2-1.2V1.2c0-0.6,0.5-1.2,1.2-1.2c0.6,0,1.2,0.5,1.2,1.2v43.2
				C23.9,45,23.4,45.5,22.8,45.5"/>
		</g>
	</g>
	<g>
		<g>
			<defs>
				<rect id="SVGID_5_" y="21.9" width="34.7" height="23.7"/>
			</defs>
			<clipPath id="SVGID_6_">
				<use xlink:href="#SVGID_5_"  style="overflow:visible;"/>
			</clipPath>
			<path class="st3" d="M1.2,45.6c-0.4,0-0.8-0.2-1-0.5c-0.4-0.5-0.2-1.3,0.3-1.6l32.4-21.3c0.5-0.4,1.3-0.2,1.6,0.3
				c0.4,0.5,0.2,1.3-0.3,1.6L1.8,45.4C1.6,45.5,1.4,45.6,1.2,45.6"/>
		</g>
	</g>
	<g>
		<g>
			<defs>
				<rect id="SVGID_7_" x="32.4" y="21.9" width="13.1" height="23.7"/>
			</defs>
			<clipPath id="SVGID_8_">
				<use xlink:href="#SVGID_7_"  style="overflow:visible;"/>
			</clipPath>
			<path class="st4" d="M44.4,45.6c-0.4,0-0.8-0.2-1-0.6L32.5,23.6C32.2,23,32.5,22.3,33,22c0.6-0.3,1.3-0.1,1.6,0.5l10.8,21.3
				c0.3,0.6,0.1,1.3-0.5,1.6C44.7,45.5,44.6,45.6,44.4,45.6"/>
		</g>
	</g>
	<g>
		<g>
			<defs>
				<rect id="SVGID_9_" x="21.6" y="21.9" width="13.1" height="23.6"/>
			</defs>
			<clipPath id="SVGID_10_">
				<use xlink:href="#SVGID_9_"  style="overflow:visible;"/>
			</clipPath>
			<path class="st5" d="M22.8,45.5c-0.2,0-0.4,0-0.5-0.1c-0.6-0.3-0.8-1-0.5-1.6l10.8-21.3c0.3-0.6,1-0.8,1.6-0.5
				c0.6,0.3,0.8,1,0.5,1.6L23.8,44.9C23.6,45.3,23.2,45.5,22.8,45.5"/>
		</g>
	</g>
</g>
</svg>
