<?xml version="1.0" encoding="utf-8"?>
<!-- Generator: Adobe Illustrator 19.0.0, SVG Export Plug-In . SVG Version: 6.00 Build 0)  -->
<svg version="1.1" id="Layer_2" xmlns="http://www.w3.org/2000/svg" xmlns:xlink="http://www.w3.org/1999/xlink" x="0px" y="0px"
	 viewBox="0 0 189 45.6" style="enable-background:new 0 0 189 45.6;" xml:space="preserve">
<style type="text/css">
	.st0{fill:#FFFFFF;}
</style>
<g>
	<path class="st0" d="M69.8,15.9c0.6,0.8,0.8,1.7,0.8,2.8c0,1.1-0.3,2-0.8,2.7c-0.3,0.4-0.8,0.7-1.4,1c0.9,0.3,1.6,0.9,2.1,1.6
		c0.5,0.7,0.7,1.6,0.7,2.7c0,1.1-0.3,2-0.8,2.9c-0.3,0.6-0.8,1-1.3,1.4c-0.6,0.4-1.3,0.7-2,0.9c-0.8,0.2-1.6,0.2-2.6,0.2h-8.1V14
		h8.7C67.3,14,68.8,14.7,69.8,15.9 M59.9,17.2v4h4.4c0.8,0,1.4-0.1,1.9-0.4c0.5-0.3,0.7-0.8,0.7-1.6c0-0.8-0.3-1.4-1-1.7
		c-0.6-0.2-1.3-0.3-2.1-0.3H59.9z M59.9,24.1V29h4.4c0.8,0,1.4-0.1,1.8-0.3c0.8-0.4,1.2-1.1,1.2-2.3c0-0.9-0.4-1.6-1.2-1.9
		c-0.4-0.2-1-0.3-1.8-0.3H59.9z"/>
	<path class="st0" d="M77.5,17.1h-3.5v-3.2h3.5V17.1z M73.9,18.7h3.5v13.4h-3.5V18.7z"/>
	<path class="st0" d="M79.3,21.3v-2.5h1.9v-3.7h3.5v3.7h2.2v2.5h-2.2v7.1c0,0.5,0.1,0.9,0.2,1c0.1,0.1,0.6,0.2,1.3,0.2
		c0.1,0,0.2,0,0.3,0c0.1,0,0.2,0,0.3,0v2.6l-1.7,0.1c-1.7,0.1-2.8-0.2-3.4-0.9c-0.4-0.4-0.6-1-0.6-1.9v-8.2H79.3z"/>
	<path class="st0" d="M101.4,14h4.3l6.4,18.1H108l-1.2-3.7h-6.7l-1.2,3.7h-4L101.4,14z M101.2,25.3h4.6l-2.3-7.1L101.2,25.3z"/>
	<rect x="114" y="14" class="st0" width="3.5" height="18.1"/>
	<rect x="120.6" y="14" class="st0" width="3.5" height="18.1"/>
	<path class="st0" d="M130.7,17.1h-3.5v-3.2h3.5V17.1z M127.2,18.7h3.5v13.4h-3.5V18.7z"/>
	<path class="st0" d="M139.2,24c0.7-0.1,1.1-0.2,1.4-0.3c0.5-0.2,0.8-0.5,0.8-1c0-0.5-0.2-0.9-0.6-1.1c-0.4-0.2-1-0.3-1.7-0.3
		c-0.8,0-1.4,0.2-1.8,0.6c-0.3,0.3-0.4,0.7-0.5,1.2h-3.4c0.1-1.2,0.4-2.1,1-2.9c0.9-1.2,2.5-1.8,4.8-1.8c1.5,0,2.8,0.3,3.9,0.9
		c1.1,0.6,1.7,1.7,1.7,3.3v6.1c0,0.4,0,0.9,0,1.5c0,0.5,0.1,0.8,0.2,0.9c0.1,0.2,0.3,0.3,0.5,0.4v0.5h-3.8c-0.1-0.3-0.2-0.5-0.2-0.8
		c0-0.2-0.1-0.5-0.1-0.8c-0.5,0.5-1,1-1.7,1.3c-0.8,0.4-1.6,0.6-2.6,0.6c-1.2,0-2.2-0.3-3-1c-0.8-0.7-1.2-1.7-1.2-2.9
		c0-1.6,0.6-2.8,1.9-3.6c0.7-0.4,1.7-0.7,3.1-0.9L139.2,24z M141.4,25.6c-0.2,0.1-0.5,0.3-0.7,0.3c-0.2,0.1-0.5,0.2-0.9,0.2
		l-0.8,0.1c-0.7,0.1-1.3,0.3-1.6,0.5c-0.6,0.3-0.8,0.8-0.8,1.5c0,0.6,0.2,1,0.5,1.3c0.3,0.3,0.7,0.4,1.2,0.4c0.8,0,1.5-0.2,2.1-0.7
		c0.6-0.4,1-1.2,1-2.4V25.6z"/>
	<path class="st0" d="M158.5,19.5c0.9,0.7,1.3,1.9,1.3,3.6v9h-3.6V24c0-0.7-0.1-1.2-0.3-1.6c-0.3-0.7-1-1-1.9-1
		c-1.2,0-2,0.5-2.4,1.5c-0.2,0.5-0.3,1.2-0.3,2v7.2h-3.5V18.7h3.4v2c0.4-0.7,0.9-1.2,1.3-1.5c0.7-0.5,1.6-0.8,2.7-0.8
		C156.5,18.4,157.6,18.8,158.5,19.5"/>
	<path class="st0" d="M170.9,23.5c-0.1-0.5-0.2-0.9-0.5-1.4c-0.4-0.5-1-0.8-1.8-0.8c-1.2,0-2,0.6-2.4,1.8c-0.2,0.6-0.3,1.4-0.3,2.5
		c0,1,0.1,1.8,0.3,2.4c0.4,1.1,1.2,1.7,2.4,1.7c0.8,0,1.4-0.2,1.7-0.7c0.3-0.4,0.6-1,0.6-1.7h3.6c-0.1,1.1-0.5,2.1-1.2,3
		c-1.1,1.5-2.7,2.3-4.9,2.3c-2.2,0-3.7-0.6-4.8-1.9c-1-1.3-1.5-2.9-1.5-5c0-2.3,0.6-4.1,1.7-5.4c1.1-1.3,2.7-1.9,4.6-1.9
		c1.7,0,3.1,0.4,4.1,1.1c1.1,0.8,1.7,2.1,1.9,4H170.9z"/>
	<path class="st0" d="M185.5,19c0.9,0.4,1.7,1.1,2.3,2c0.5,0.8,0.9,1.7,1.1,2.8c0.1,0.6,0.1,1.5,0.1,2.7h-9.7
		c0.1,1.3,0.5,2.3,1.4,2.8c0.5,0.3,1.2,0.5,1.9,0.5c0.8,0,1.4-0.2,1.9-0.6c0.3-0.2,0.5-0.5,0.7-0.9h3.6c-0.1,0.8-0.5,1.6-1.3,2.4
		c-1.2,1.3-2.9,2-5,2c-1.8,0-3.4-0.5-4.7-1.6c-1.4-1.1-2-2.9-2-5.4c0-2.3,0.6-4.1,1.8-5.3c1.2-1.2,2.8-1.9,4.8-1.9
		C183.6,18.4,184.6,18.6,185.5,19 M180.3,22c-0.5,0.5-0.8,1.2-0.9,2.1h6c-0.1-0.9-0.4-1.6-0.9-2.1c-0.6-0.5-1.2-0.7-2.1-0.7
		C181.5,21.3,180.8,21.5,180.3,22"/>
	<path class="st0" d="M0.8,45.5c0.1,0,0.2,0.1,0.3,0.1h0l0,0h0C1,45.6,0.9,45.5,0.8,45.5 M0.8,45.5C0.8,45.5,0.8,45.5,0.8,45.5
		C0.8,45.5,0.8,45.5,0.8,45.5 M0.8,45.5C0.8,45.5,0.8,45.5,0.8,45.5C0.8,45.5,0.8,45.5,0.8,45.5 M0.8,45.5
		C0.8,45.5,0.8,45.5,0.8,45.5C0.8,45.5,0.8,45.5,0.8,45.5 M0.6,45.4C0.6,45.4,0.6,45.4,0.6,45.4C0.6,45.4,0.6,45.4,0.6,45.4
		C0.6,45.4,0.6,45.4,0.6,45.4 M0.4,45.3C0.4,45.3,0.4,45.3,0.4,45.3C0.4,45.3,0.4,45.3,0.4,45.3 M0.1,44.9c0.1,0.1,0.2,0.3,0.3,0.4
		c-0.1-0.1-0.2-0.2-0.2-0.2C0.2,45,0.1,45,0.1,44.9 M0.1,44.9C0.1,44.9,0.1,44.9,0.1,44.9C0.1,44.9,0.1,44.9,0.1,44.9 M0.1,43.9
		C0,44.1,0,44.2,0,44.4v0c0,0,0,0,0,0C0,44.3,0,44.1,0.1,43.9 M21.7,0.7L0.1,43.9c0.1-0.2,0.2-0.3,0.4-0.4L4.1,41L21.6,6.1V1.2
		C21.6,1,21.6,0.8,21.7,0.7 M22.2,0.1c-0.1,0.1-0.3,0.2-0.4,0.3C21.9,0.3,22.1,0.2,22.2,0.1 M22.8,0L22.8,0c-0.1,0-0.2,0-0.2,0
		C22.6,0,22.7,0,22.8,0c0.1,0,0.1,0,0.2,0C22.9,0,22.9,0,22.8,0"/>
	<path class="st0" d="M22.6,45.5C22.6,45.5,22.6,45.5,22.6,45.5C22.6,45.5,22.6,45.5,22.6,45.5 M23.4,45.3c-0.2,0.1-0.4,0.2-0.7,0.2
		l0,0C23,45.5,23.2,45.4,23.4,45.3 M22.1,45.3c0.1,0.1,0.3,0.2,0.5,0.2c-0.1,0-0.2-0.1-0.3-0.1C22.2,45.4,22.1,45.3,22.1,45.3
		 M21.6,44.5c0,0.1,0.1,0.3,0.1,0.4C21.7,44.8,21.6,44.6,21.6,44.5 M23.9,30.8l-2.3,1.5v12c0-0.2,0-0.3,0.1-0.5l2.2-4.3V30.8
		 M21.8,0.5c-0.1,0.1-0.1,0.1-0.1,0.2l0,0C21.8,0.6,21.8,0.5,21.8,0.5 M23,0c0.1,0,0.2,0.1,0.3,0.1c0.6,0.3,0.8,1,0.5,1.6l-2.2,4.4
		v23.4l2.3-1.5V1.1C23.9,0.6,23.5,0.1,23,0 M22.6,0c-0.1,0-0.2,0.1-0.3,0.1C22.3,0.1,22.4,0,22.6,0"/>
	<path class="st0" d="M22.8,0c-0.1,0-0.1,0-0.2,0c-0.1,0-0.2,0.1-0.3,0.1c-0.2,0.1-0.3,0.2-0.4,0.3c0,0.1-0.1,0.1-0.1,0.2l0,0
		c-0.1,0.1-0.1,0.3-0.1,0.5v4.9l2.2-4.4c0.3-0.6,0.1-1.3-0.5-1.6C23.2,0.1,23.1,0,23,0C22.9,0,22.9,0,22.8,0"/>
	<path class="st0" d="M0.8,45.5C0.8,45.5,0.8,45.5,0.8,45.5C0.8,45.5,0.8,45.5,0.8,45.5 M0.8,45.5C0.8,45.5,0.8,45.5,0.8,45.5
		C0.8,45.5,0.8,45.5,0.8,45.5 M0.8,45.5C0.8,45.5,0.8,45.5,0.8,45.5C0.8,45.5,0.8,45.5,0.8,45.5 M0.7,45.4c0,0,0.1,0,0.1,0.1
		C0.7,45.5,0.7,45.5,0.7,45.4 M0.4,45.3c0.1,0.1,0.1,0.1,0.2,0.1C0.6,45.4,0.5,45.3,0.4,45.3 M0.4,45.3L0.4,45.3L0.4,45.3 M0.1,44.9
		C0.1,44.9,0.1,44.9,0.1,44.9C0.1,44.9,0.1,44.9,0.1,44.9 M0,44.4c0,0.2,0,0.3,0.1,0.5C0.1,44.8,0,44.6,0,44.4 M0.1,43.9
		C0.1,43.9,0.1,43.9,0.1,43.9C0.1,43.9,0.1,43.9,0.1,43.9L0.1,43.9 M21.6,29.5L4.1,41l-1.9,3.9c-0.2,0.4-0.6,0.6-1,0.6h0
		c0.2,0,0.4-0.1,0.6-0.2l19.8-13V29.5 M34.3,22.2L34.3,22.2L34.3,22.2 M32.9,22.1l-9,5.9v2.8l6.6-4.4l2-3.9
		C32.6,22.4,32.8,22.2,32.9,22.1 M34.1,22c0.1,0,0.2,0.1,0.2,0.2C34.3,22.1,34.2,22.1,34.1,22 M34.1,22L34.1,22L34.1,22 M34.1,22
		C34.1,22,34.1,22,34.1,22C34.1,22,34.1,22,34.1,22 M34.1,22C34.1,22,34.1,22,34.1,22C34.1,22,34.1,22,34.1,22 M34.1,22
		C34.1,22,34.1,22,34.1,22C34.1,22,34.1,22,34.1,22"/>
	<path class="st0" d="M4.1,41l-3.6,2.4c-0.2,0.1-0.3,0.3-0.4,0.4l0,0c0,0,0,0,0,0.1C0,44.1,0,44.3,0,44.4c0,0.2,0.1,0.3,0.1,0.5
		c0,0,0,0,0,0c0,0,0,0,0,0c0,0,0,0.1,0.1,0.1c0.1,0.1,0.1,0.2,0.2,0.2l0,0c0,0,0,0,0,0c0.1,0.1,0.1,0.1,0.2,0.1c0,0,0,0,0,0
		c0,0,0.1,0,0.1,0.1c0,0,0,0,0,0c0,0,0,0,0,0c0,0,0,0,0,0c0,0,0,0,0,0c0,0,0,0,0,0c0,0,0,0,0,0c0.1,0,0.2,0.1,0.3,0.1h0
		c0.4,0,0.8-0.2,1-0.6L4.1,41"/>
	<polyline class="st0" points="23.9,28 21.6,29.5 21.6,32.3 23.9,30.8 23.9,28 	"/>
	<path class="st0" d="M34.6,22.6C34.6,22.6,34.6,22.6,34.6,22.6c0.1,0.2,0.1,0.3,0.1,0.4c0,0.2,0,0.3-0.1,0.5c0,0.1,0,0.1-0.1,0.2
		l-1,2l9.8,19.3c0.2,0.4,0.6,0.6,1,0.6h0c0.2,0,0.3,0,0.5-0.1c0.4-0.2,0.6-0.6,0.6-1v-0.1c0-0.2,0-0.3-0.1-0.5L34.6,22.6 M33.2,22
		L33.2,22L33.2,22 M33.6,21.9L33.6,21.9L33.6,21.9 M33.6,21.9c-0.1,0-0.3,0-0.4,0.1C33.3,21.9,33.4,21.9,33.6,21.9
		C33.6,21.9,33.6,21.9,33.6,21.9C33.6,21.9,33.6,21.9,33.6,21.9"/>
	<path class="st0" d="M34.7,23.4c0,0,0,0.1-0.1,0.1l0,0C34.6,23.6,34.7,23.5,34.7,23.4 M34.6,22.6c0.1,0.1,0.1,0.2,0.1,0.4
		C34.7,22.8,34.7,22.7,34.6,22.6"/>
	<path class="st0" d="M22.6,45.5c0.1,0,0.1,0,0.2,0c0,0,0,0,0,0C22.7,45.5,22.6,45.5,22.6,45.5 M22.6,45.5L22.6,45.5L22.6,45.5
		 M21.7,44.9c0.1,0.2,0.2,0.3,0.4,0.4C21.9,45.2,21.8,45.1,21.7,44.9 M21.6,44.3C21.6,44.3,21.6,44.3,21.6,44.3L21.6,44.3
		c0,0.1,0,0.1,0,0.2C21.6,44.5,21.6,44.4,21.6,44.3L21.6,44.3 M33.1,24.7l-2.6,1.7l-6.6,13v4.9c0,0.4-0.2,0.7-0.5,0.9
		c0.2-0.1,0.3-0.3,0.4-0.4l9.8-19.2L33.1,24.7 M34.3,22.2C34.4,22.2,34.4,22.2,34.3,22.2C34.4,22.3,34.4,22.3,34.3,22.2L34.3,22.2
		c0.1,0.1,0.2,0.2,0.2,0.3c0,0,0,0.1,0.1,0.1l0,0C34.6,22.4,34.5,22.3,34.3,22.2 M34.3,22.2C34.3,22.2,34.3,22.2,34.3,22.2
		C34.3,22.2,34.3,22.2,34.3,22.2 M34.1,22C34.1,22,34.1,22,34.1,22C34.1,22,34.1,22,34.1,22C34.1,22,34.1,22,34.1,22 M34.1,22
		C34.1,22,34.1,22,34.1,22C34.1,22,34.1,22,34.1,22 M34.1,22C34.1,22,34.1,22,34.1,22C34.1,22,34.1,22,34.1,22 M34.1,22
		C34.1,22,34.1,22,34.1,22C34.1,22,34.1,22,34.1,22 M33.2,22c-0.1,0-0.2,0.1-0.3,0.1l0,0c0,0,0.1-0.1,0.1-0.1
		C33.1,22,33.1,22,33.2,22 M33.2,22C33.2,22,33.2,22,33.2,22C33.2,22,33.2,22,33.2,22 M33.6,21.9c0.1,0,0.2,0,0.2,0
		c0.1,0,0.1,0,0.2,0.1C33.9,21.9,33.8,21.9,33.6,21.9 M33.6,21.9C33.6,21.9,33.6,21.9,33.6,21.9C33.6,21.9,33.6,21.9,33.6,21.9"/>
	<path class="st0" d="M23.9,39.5l-2.2,4.3c-0.1,0.2-0.1,0.3-0.1,0.5v0c0,0.1,0,0.1,0,0.2c0,0.1,0.1,0.3,0.1,0.4
		c0.1,0.2,0.2,0.3,0.4,0.4c0,0,0.1,0.1,0.1,0.1c0.1,0.1,0.2,0.1,0.3,0.1l0,0c0,0,0,0,0,0c0.1,0,0.1,0,0.2,0c0.2,0,0.5-0.1,0.7-0.2
		c0.3-0.2,0.5-0.5,0.5-0.9V39.5"/>
	<path class="st0" d="M34.6,22.5C34.6,22.5,34.6,22.5,34.6,22.5L34.6,22.5C34.6,22.5,34.6,22.5,34.6,22.5 M34.4,22.3L34.4,22.3
		L34.4,22.3 M32.9,22.1L32.9,22.1c-0.2,0.1-0.3,0.3-0.4,0.4l-2,3.9l2.6-1.7l-0.6-1.2C32.3,23.1,32.4,22.4,32.9,22.1 M33.9,21.9
		c0.2,0.1,0.4,0.2,0.6,0.3c0,0,0,0-0.1-0.1v0c0,0,0,0,0,0c-0.1-0.1-0.1-0.1-0.2-0.2c0,0,0,0,0,0l0,0c0,0,0,0,0,0c0,0,0,0,0,0
		c0,0,0,0,0,0c0,0,0,0,0,0c0,0,0,0,0,0c0,0,0,0,0,0C34,22,33.9,21.9,33.9,21.9"/>
	<path class="st0" d="M34.6,23.6c-0.1,0.2-0.2,0.3-0.4,0.4l-1.1,0.7l0.4,0.9L34.6,23.6 M34.7,23c0,0.2,0,0.3-0.1,0.5
		C34.7,23.3,34.7,23.1,34.7,23 M34.6,22.6C34.6,22.6,34.6,22.6,34.6,22.6C34.6,22.6,34.6,22.6,34.6,22.6L34.6,22.6 M34.4,22.3
		c0,0,0.1,0.1,0.1,0.2c0,0,0,0,0,0C34.5,22.4,34.5,22.3,34.4,22.3 M34.4,22.3C34.4,22.3,34.4,22.3,34.4,22.3
		C34.4,22.3,34.4,22.3,34.4,22.3 M33.6,21.9c-0.1,0-0.3,0-0.4,0.1c0,0,0,0,0,0l0,0c0,0-0.1,0-0.1,0.1c0,0-0.1,0-0.1,0.1l0,0
		C33.1,22,33.3,21.9,33.6,21.9L33.6,21.9c0.1,0,0.2,0,0.3,0C33.8,21.9,33.7,21.9,33.6,21.9L33.6,21.9C33.6,21.9,33.6,21.9,33.6,21.9
		C33.6,21.9,33.6,21.9,33.6,21.9"/>
	<path class="st0" d="M33.6,21.9L33.6,21.9c-0.3,0-0.5,0.1-0.7,0.2l0,0c-0.5,0.3-0.7,1-0.4,1.5l0.6,1.2l1.1-0.7
		c0.2-0.1,0.3-0.3,0.4-0.4l0,0c0,0,0-0.1,0.1-0.1c0.1-0.1,0.1-0.3,0.1-0.5c0-0.1,0-0.3-0.1-0.4c0,0,0,0,0,0l0,0c0,0,0,0,0-0.1
		c0,0,0,0,0,0c0-0.1-0.1-0.1-0.1-0.2l0,0c0,0,0,0,0,0c-0.2-0.2-0.4-0.3-0.6-0.3C33.8,21.9,33.7,21.9,33.6,21.9"/>
</g>
</svg>
